<svg width="1440" height="173" viewBox="0 0 1440 173" fill="none" xmlns="http://www.w3.org/2000/svg">
<path d="M161.248 75.5998H20.8832V2.98784H0V169.812H20.8832V93.4918H161.248V169.812H182.132V2.98784H161.248V75.5998Z" fill="black"/>
<path d="M228.27 2.98784H207.387V169.812H350.426V151.884H228.27V2.98784Z" fill="black"/>
<path d="M571.831 12.8878C557.848 6.29984 540.831 2.98784 520.779 2.98784H425.54V169.776H520.779C540.867 169.776 557.921 166.464 571.939 159.84C585.921 153.216 596.58 143.64 603.842 131.112C611.104 118.584 614.753 103.608 614.753 86.2198V86.0038C614.753 68.7598 611.104 53.8918 603.806 41.4358C596.507 28.9798 585.849 19.4758 571.831 12.8878ZM593.292 86.5798C593.292 100.368 590.474 112.176 584.874 121.932C579.273 131.724 570.964 139.14 559.98 144.252C548.996 149.328 535.556 151.884 519.623 151.884H446.423V20.9158H519.623C535.628 20.9158 549.141 23.4718 560.125 28.5478C571.108 33.6238 579.382 41.0398 584.946 50.7958C590.51 60.5518 593.292 72.3958 593.292 86.3278V86.5798Z" fill="black"/>
<path d="M633.504 169.812H788.719V152.208H654.388V92.9158H779.434V75.9238H654.388V20.5918H788.719V2.98784H633.504V169.812Z" fill="black"/>
<path d="M949.137 84.78C940.032 81.36 928.218 78.984 913.766 77.688L868.278 74.088C853.031 72.864 842.011 70.2 835.147 66.168C828.318 62.136 824.886 56.052 824.886 47.952V47.844C824.886 41.616 827.198 36.216 831.786 31.716C836.375 27.216 843.023 23.724 851.694 21.312C860.365 18.9 870.988 17.676 883.597 17.676C897.29 17.676 908.816 18.828 918.21 21.132C927.603 23.436 935.046 26.892 940.466 31.464C945.921 36.036 949.607 41.796 951.558 48.744L951.919 49.896H972.911L972.694 48.852C971.285 38.448 966.913 29.592 959.579 22.284C952.244 14.976 942.2 9.432 929.482 5.652C916.764 1.872 901.59 0 883.958 0C867.411 0 853.139 1.98 841.144 5.904C829.149 9.828 819.936 15.408 813.468 22.68C807.001 29.916 803.786 38.52 803.786 48.456V48.672C803.786 61.848 808.735 72 818.563 79.056C828.426 86.148 843.637 90.576 864.195 92.34L909.213 95.796C925.905 97.272 937.72 100.008 944.584 104.004C951.485 108 954.918 114.408 954.918 123.192V123.3C954.918 129.852 952.569 135.54 947.836 140.364C943.103 145.188 936.238 148.824 927.242 151.344C918.246 153.864 907.298 155.088 894.472 155.088C879.623 155.088 867.013 153.936 856.644 151.632C846.275 149.328 838.109 145.908 832.112 141.408C826.114 136.908 822.393 131.328 820.911 124.704L820.442 123.444H799.45L799.667 124.956C801.076 135.216 805.556 143.892 813.107 151.02C820.695 158.148 831.172 163.548 844.613 167.256C858.017 170.964 874.167 172.8 893.027 172.8C910.731 172.8 925.761 170.82 938.153 166.896C950.51 162.972 959.94 157.248 966.407 149.724C972.874 142.2 976.09 133.056 976.09 122.256V122.148C976.09 113.04 973.85 105.408 969.406 99.216C964.962 93.024 958.17 88.2 949.029 84.78H949.137Z" fill="black"/>
<path d="M1014.32 2.98784H993.432V169.776H1014.32V2.98784Z" fill="black"/>
<path d="M1217.51 101.376L1217.4 102.78C1215.92 113.508 1211.8 122.724 1205.05 130.536C1198.29 138.312 1189.26 144.324 1177.95 148.5C1166.64 152.712 1153.49 154.8 1138.39 154.8C1125.7 154.8 1114.18 153.18 1103.81 149.904C1093.44 146.628 1084.59 141.948 1077.25 135.864C1069.92 129.78 1064.25 122.508 1060.27 114.012C1056.3 105.552 1054.31 96.084 1054.31 85.68V85.464C1054.31 71.748 1057.78 59.868 1064.68 49.86C1071.62 39.852 1081.37 32.076 1094.02 26.496C1106.66 20.952 1121.44 18.18 1138.39 18.18C1157.03 18.18 1173.07 21.456 1186.51 28.008C1199.95 34.56 1209.53 43.668 1215.16 55.296L1215.63 56.088H1237.31L1236.73 54.684C1233.08 43.668 1226.72 34.056 1217.66 25.848C1208.55 17.64 1197.24 11.268 1183.66 6.768C1170.07 2.268 1154.93 0 1138.24 0C1117.07 0 1098.57 3.528 1082.78 10.584C1066.99 17.64 1054.75 27.576 1045.97 40.392C1037.19 53.208 1032.81 68.22 1032.81 85.428V85.644C1032.81 98.676 1035.34 110.556 1040.37 121.32C1045.39 132.084 1052.54 141.264 1061.83 148.932C1071.11 156.6 1082.2 162.504 1095.14 166.608C1108.04 170.712 1122.45 172.8 1138.28 172.8C1154.1 172.8 1167.15 170.964 1179.39 167.256C1191.64 163.548 1202.16 158.256 1210.94 151.308C1219.71 144.36 1226.47 136.08 1231.24 126.396C1236.01 116.712 1238.36 105.948 1238.36 94.104V84.96H1138.35V101.376H1217.51Z" fill="black"/>
<path d="M1419.59 2.98784V142.308L1277.45 2.98784H1257.87V169.812H1278.28V30.3118L1420.16 169.812H1440V2.98784H1419.59Z" fill="black"/>
</svg>
